<svg width="65" height="64" viewBox="0 0 65 64" fill="none" xmlns="http://www.w3.org/2000/svg">
<path fill-rule="evenodd" clip-rule="evenodd" d="M41.0057 30.6047C36.9606 33.0974 34.0522 37.2576 33.2406 42.1272H10.7476C9.9141 41.7892 9.55797 40.6407 10.1902 39.8421L17.7618 30.2807C18.3154 29.5827 19.3347 29.5827 19.8883 30.2807L25.216 37.0085L34.5902 25.1698C35.1399 24.4756 36.1528 24.4756 36.7012 25.1698L41.0057 30.6047Z" fill="#7C6BF7"/>
<path fill-rule="evenodd" clip-rule="evenodd" d="M4.77378 48.1332V8.19336H2.79223C1.59778 8.19336 0.629395 9.16162 0.629395 10.3561V49.5919C0.629395 53.2523 3.59688 56.2197 7.25739 56.2197H43.6344L37.8672 52.2543H8.89481C6.61881 52.2543 4.77378 50.4094 4.77378 48.1332Z" fill="#E9EAFF"/>
<path fill-rule="evenodd" clip-rule="evenodd" d="M49.8045 31.1558C57.4013 31.1558 63.5598 37.3136 63.5598 44.9096C63.5598 52.5054 57.4013 58.6632 49.8045 58.6632C42.2078 58.6632 36.0493 52.5054 36.0493 44.9096C36.0493 37.3136 42.2078 31.1558 49.8045 31.1558Z" fill="#E9EAFF"/>
<path fill-rule="evenodd" clip-rule="evenodd" d="M51.709 30.2614C51.0858 30.1814 50.451 30.1401 49.8058 30.1401C41.6613 30.1401 35.0355 36.7659 35.0355 44.9092C35.0355 47.0819 35.5077 49.1479 36.3542 51.0071H8.30915C7.0498 51.0071 6.02786 49.9866 6.02786 48.7259V9.31342C6.02786 8.05277 7.0498 7.03226 8.30915 7.03226H49.4768C50.7374 7.03226 51.7581 8.05277 51.7581 9.31342L51.709 30.2614ZM53.7426 30.6729L53.7903 9.01794C53.7903 6.79871 51.9916 5 49.7735 5H8.01367C5.79432 5 3.99561 6.79871 3.99561 9.01794V49.0214C3.99561 51.2408 5.79432 53.0394 8.01367 53.0394H37.4819C40.1271 57.0369 44.6639 59.6795 49.8058 59.6795C52.94 59.6795 55.9335 58.7103 58.4639 56.8769C58.9193 56.5479 59.02 55.9117 58.691 55.4576C58.3619 55.0034 57.7258 54.9014 57.2716 55.2317C55.0329 56.8537 52.3722 57.6911 49.5916 57.6446C42.8832 57.5363 37.3619 52.1608 37.0806 45.4563C36.7748 38.1853 42.6006 32.1724 49.8058 32.1724C50.7361 32.1724 51.6432 32.273 52.5181 32.4639C52.5193 32.4639 52.5206 32.4639 52.5232 32.4653C58.2458 33.713 62.5439 38.8187 62.5439 44.9092C62.5439 47.4627 61.7916 49.9246 60.3684 52.0305C60.0316 52.5298 60.1968 53.2213 60.7503 53.5053C61.2135 53.744 61.7839 53.5685 62.0742 53.1361C63.7116 50.7 64.5761 47.8561 64.5761 44.9092C64.5761 38.1272 59.9813 32.3994 53.7426 30.6729Z" fill="#7C6BF7"/>
<path fill-rule="evenodd" clip-rule="evenodd" d="M49.8046 51.3736C49.0807 51.3736 48.4939 50.7867 48.4939 50.063V39.7561C48.4939 39.0323 49.0807 38.4456 49.8046 38.4456C50.5285 38.4456 51.1153 39.0323 51.1153 39.7561V50.063C51.1153 50.7867 50.5285 51.3736 49.8046 51.3736Z" fill="#7C6BF7"/>
<path fill-rule="evenodd" clip-rule="evenodd" d="M43.3406 44.9096C43.3406 44.1857 43.9274 43.5989 44.6513 43.5989H54.958C55.6819 43.5989 56.2686 44.1857 56.2686 44.9096C56.2686 45.6333 55.6819 46.2202 54.958 46.2202H44.6513C43.9274 46.2202 43.3406 45.6333 43.3406 44.9096Z" fill="#7C6BF7"/>
<path fill-rule="evenodd" clip-rule="evenodd" d="M24.2889 16.0125C26.2513 16.0125 27.8422 17.6034 27.8422 19.5657C27.8422 21.5283 26.2513 23.1192 24.2889 23.1192C22.3264 23.1192 20.7356 21.5283 20.7356 19.5657C20.7356 17.6034 22.3264 16.0125 24.2889 16.0125Z" fill="#7C6BF7"/>
</svg>
